<svg height="512pt" viewBox="0 0 512 512" width="512pt" xmlns="http://www.w3.org/2000/svg"><path d="m375.464844 477.867188c-28.285156 0-54.628906-9.890626-74.167969-27.851563-3.476563-3.191406-3.695313-8.585937-.515625-12.058594 3.191406-3.464843 8.59375-3.6875 12.058594-.511719 16.144531 14.847657 38.972656 23.355469 62.625 23.355469 4.710937 0 8.535156 3.820313 8.535156 8.53125 0 4.710938-3.824219 8.535157-8.535156 8.535157zm0 0"/><path d="m375.464844 358.398438c-19.410156 0-36.878906-7.960938-45.601563-20.777344-2.652343-3.898438-1.636719-9.207032 2.261719-11.859375 3.910156-2.648438 9.207031-1.632813 11.863281 2.257812 5.496094 8.089844 17.851563 13.3125 31.476563 13.3125 13.648437 0 26.011718-5.230469 31.5-13.328125 2.660156-3.90625 7.960937-4.90625 11.851562-2.269531 3.898438 2.652344 4.914063 7.953125 2.269532 11.851563-8.703126 12.84375-26.1875 20.8125-45.621094 20.8125zm0 0"/><path d="m136.535156 512c-75.28125 0-136.535156-55.507812-136.535156-123.734375 0-21.390625 0-86.492187 63.90625-97.996094 17.816406-3.207031 31.429688.332031 44.59375 3.753907 9.191406 2.390624 17.878906 4.644531 28.035156 4.644531 10.152344 0 18.839844-2.261719 28.03125-4.644531 13.164063-3.414063 26.777344-6.953126 44.59375-3.753907 63.90625 11.511719 63.90625 76.613281 63.90625 97.996094 0 68.226563-61.253906 123.734375-136.53125 123.734375zm-58.703125-205.917969c-3.445312 0-7.046875.296875-10.898437.988281-34.488282 6.207032-49.867188 31.25-49.867188 81.195313 0 58.820313 53.589844 106.667969 119.46875 106.667969 65.875 0 119.464844-47.847656 119.464844-106.667969 0-49.953125-15.378906-74.988281-49.859375-81.203125-14.132813-2.558594-24.859375.238281-37.28125 3.472656-9.824219 2.5625-19.988281 5.199219-32.324219 5.199219-12.339844 0-22.503906-2.644531-32.324218-5.199219-9.039063-2.34375-17.179688-4.453125-26.378907-4.453125zm0 0"/><path d="m49.269531 426.667969c-3.222656 0-6.3125-1.835938-7.753906-4.96875-4.898437-10.632813-7.382813-21.878907-7.382813-33.433594 0-4.710937 3.824219-8.53125 8.535157-8.53125 4.710937 0 8.53125 3.820313 8.53125 8.53125 0 9.0625 1.953125 17.921875 5.820312 26.300781 1.972657 4.285156.101563 9.351563-4.179687 11.324219-1.160156.527344-2.375.777344-3.570313.777344zm0 0"/><path d="m136.535156 477.867188c-28.289062 0-54.632812-9.890626-74.171875-27.851563-3.476562-3.191406-3.695312-8.585937-.515625-12.058594 3.195313-3.464843 8.59375-3.6875 12.058594-.511719 16.144531 14.847657 38.972656 23.355469 62.628906 23.355469 4.707032 0 8.53125 3.820313 8.53125 8.53125 0 4.710938-3.824218 8.535157-8.53125 8.535157zm0 0"/><path d="m136.535156 358.398438c-19.414062 0-36.882812-7.960938-45.605468-20.777344-2.652344-3.898438-1.636719-9.207032 2.261718-11.859375 3.910156-2.648438 9.207032-1.632813 11.863282 2.257812 5.496093 8.089844 17.851562 13.3125 31.480468 13.3125 13.644532 0 26.007813-5.230469 31.496094-13.328125 2.652344-3.90625 7.960938-4.90625 11.851562-2.269531 3.898438 2.652344 4.914063 7.953125 2.269532 11.851563-8.703125 12.84375-26.1875 20.8125-45.617188 20.8125zm0 0"/><path d="m136.515625 332.792969c-3.769531 0-7.210937-2.511719-8.226563-6.324219-.511718-1.910156-12.117187-47.582031 17.46875-116.496094 19.992188-46.558594 21.800782-93.007812 5.101563-130.792968-13.292969-30.078126-36.914063-51.71875-68.308594-62.574219-4.453125-1.542969-6.816406-6.398438-5.28125-10.855469 1.535157-4.453125 6.410157-6.816406 10.855469-5.28125 35.480469 12.273438 63.300781 37.769531 78.351562 71.808594 18.636719 42.171875 16.855469 93.464844-5.027343 144.425781-27.066407 63.054687-16.757813 104.988281-16.65625 105.40625 1.179687 4.546875-1.550781 9.207031-6.09375 10.402344-.742188.1875-1.464844.28125-2.183594.28125zm0 0"/><path d="m375.464844 512c-56.863282 0-106.84375-31.128906-127.316406-79.300781l-1.414063-3.335938 1.414063-3.335937c5.207031-12.261719 7.851562-24.960938 7.851562-37.761719 0-20.15625-2.570312-36.027344-7.859375-48.519531l-1.40625-3.328125 1.40625-3.328125c10.027344-23.695313 28.433594-38.101563 54.699219-42.835938 17.824218-3.210937 31.429687.332032 44.601562 3.753906 9.183594 2.40625 17.871094 4.660157 28.023438 4.660157 10.15625 0 18.84375-2.261719 28.035156-4.644531 13.164062-3.414063 26.777344-6.953126 44.59375-3.753907 63.90625 11.503907 63.90625 76.613281 63.90625 97.996094 0 68.226563-61.253906 123.734375-136.535156 123.734375zm-110.1875-82.789062c18.429687 39.449218 62.230468 65.722656 110.1875 65.722656 65.878906 0 119.46875-47.847656 119.46875-106.667969 0-49.953125-15.378906-75-49.859375-81.203125-14.140625-2.558594-24.859375.238281-37.285157 3.472656-9.820312 2.5625-19.984374 5.199219-32.324218 5.199219-12.335938 0-22.492188-2.644531-32.324219-5.199219-12.429687-3.234375-23.167969-6.03125-37.28125-3.472656-19.328125 3.472656-32.640625 13.160156-40.59375 29.570312 5.25 13.984376 7.800781 30.933594 7.800781 51.632813 0 13.886719-2.621094 27.640625-7.789062 40.945313zm0 0"/><path d="m102.398438 17.066406h-93.863282c-4.710937 0-8.535156-3.8125-8.535156-8.53125 0-4.722656 3.824219-8.535156 8.535156-8.535156h93.863282c4.710937 0 8.535156 3.824219 8.535156 8.535156 0 4.707032-3.824219 8.53125-8.535156 8.53125zm0 0"/><path d="m375.476562 332.800781c-.582031 0-1.179687-.058593-1.769531-.179687-4.605469-.964844-7.558593-5.496094-6.59375-10.105469.179688-.886719 17.773438-88.820313-33.296875-172.484375-6.742187-8.128906-112.4375-132.964844-231.417968-132.964844-4.707032 0-8.53125-3.824218-8.53125-8.53125 0-4.710937 3.824218-8.535156 8.53125-8.535156 130.578124 0 240.410156 134 245.019531 139.699219l.632812.90625c55.125 89.792969 36.582031 181.5625 35.761719 185.425781-.84375 4.019531-4.386719 6.769531-8.335938 6.769531zm0 0"/></svg>