<svg height="512pt" viewBox="0 0 512.1 512" width="512pt" xmlns="http://www.w3.org/2000/svg"><path d="m454.199219 303.75c-28.398438-5.101562-45.597657 8.699219-72.300781 8.699219-26.699219 0-44-13.800781-72.296876-8.699219-26.402343 4.699219-41.101562 19.398438-49.203124 38.398438 6.601562 15.703124-8.699219 34.300781-8.699219 52.703124 0 14.699219 14.199219 28.796876 8.699219 41.796876 18.703124 44 66 75.402343 121.5 75.402343 71.902343 0 130.203124-52.402343 130.203124-117.199219-.101562-40.601562-9.703124-82.402343-57.902343-91.101562zm0 0" fill="#6b1e31"/><path d="m381.800781 486.050781c-28.800781 0-55.601562-10.101562-75.402343-28.300781-3.5-3.199219-3.796876-8.699219-.5-12.300781 3.203124-3.5 8.703124-3.699219 12.300781-.5 16.402343 15.101562 39.601562 23.800781 63.699219 23.800781 4.800781 0 8.703124 3.898438 8.703124 8.699219s-4 8.601562-8.800781 8.601562zm0 0" fill="#96425b"/><path d="m381.800781 364.550781c-19.699219 0-37.5-8.101562-46.402343-21.101562-2.699219-4-1.699219-9.398438 2.300781-12.097657 4-2.703124 9.402343-1.703124 12.101562 2.296876 5.597657 8.203124 18.199219 13.5 32 13.5 13.898438 0 26.5-5.296876 32-13.597657 2.699219-4 8.097657-5 12.097657-2.300781s5 8.101562 2.300781 12.101562c-8.800781 13.097657-26.597657 21.199219-46.398438 21.199219zm0 0" fill="#96425b"/><path d="m211.199219 303.75c-28.398438-5.101562-45.597657 8.699219-72.300781 8.699219-26.699219 0-44-13.800781-72.296876-8.699219-48.203124 8.699219-57.800781 50.5-57.800781 91.101562-.101562 64.796876 58.199219 117.199219 130 117.199219s130.199219-52.402343 130.199219-117.199219c0-40.601562-9.601562-82.402343-57.800781-91.101562zm0 0" fill="#dd352e"/><g fill="#ed6969"><path d="m50.101562 433.949219c-3.300781 0-6.402343-1.898438-7.902343-5.097657-5-10.800781-7.5-22.300781-7.5-34 0-4.800781 3.902343-8.703124 8.699219-8.703124 4.800781 0 8.703124 3.902343 8.703124 8.703124 0 9.199219 2 18.199219 5.898438 26.699219 2 4.398438.101562 9.5-4.300781 11.5-1.097657.597657-2.398438.898438-3.597657.898438zm0 0"/><path d="m138.800781 486.050781c-28.800781 0-55.601562-10.101562-75.402343-28.300781-3.5-3.199219-3.796876-8.699219-.5-12.300781 3.203124-3.5 8.703124-3.699219 12.300781-.5 16.402343 15.101562 39.601562 23.800781 63.699219 23.800781 4.800781 0 8.703124 3.898438 8.703124 8.699219s-4 8.601562-8.800781 8.601562zm0 0"/><path d="m138.800781 364.550781c-19.699219 0-37.5-8.101562-46.402343-21.101562-2.699219-4-1.699219-9.398438 2.300781-12.097657 4-2.703124 9.402343-1.703124 12.101562 2.296876 5.597657 8.203124 18.199219 13.5 32 13.5 13.898438 0 26.5-5.296876 32-13.597657 2.699219-4 8.097657-5 12.097657-2.300781s5 8.101562 2.300781 12.101562c-8.800781 13.097657-26.597657 21.199219-46.398438 21.199219zm0 0"/></g><path d="m353.898438 143.050781-.597657-.902343c-4.699219-5.796876-116.402343-142.0976568-249.199219-142.0976568h-95.402343c-4.800781 0-8.699219 3.8984378-8.699219 8.6992188s3.898438 8.699219 8.699219 8.699219h76.601562c31.300781 11.199219 54.800781 33 68.199219 63.199219 17 38.402343 15.101562 85.703124-5.199219 133-30.101562 70.101562-18.300781 116.5-17.800781 118.5 1 3.902343 4.5 6.402343 8.398438 6.402343.703124 0 1.5-.101562 2.203124-.300781 4.597657-1.199219 7.398438-6 6.199219-10.601562-.101562-.398438-10.601562-43.097657 16.898438-107.199219 22.300781-51.800781 24.101562-104 5.101562-146.898438-9.902343-22.402343-25.199219-41.101562-44.5-54.902343 112.300781 12.902343 208.199219 126.203124 214.699219 134 51.898438 85.101562 34 174.5 33.898438 175.402343-1 4.699219 2 9.300781 6.703124 10.300781.597657.097657 1.199219.199219 1.796876.199219 4 0 7.601562-2.800781 8.5-6.902343.800781-4 19.601562-97.296876-36.5-188.597657zm0 0" fill="#23a24d"/></svg>