<svg height="512pt" viewBox="-16 0 512 512" width="512pt" xmlns="http://www.w3.org/2000/svg"><path d="m480 316c0-26.050781-13.523438-49.835938-34.898438-63.382812 3.15625-8.277344 4.898438-17.246094 4.898438-26.617188 0-24.402344-11.71875-46.113281-29.820312-59.816406 8.566406-4.816406 17.023437-11.171875 25.425781-19.578125 5.859375-5.859375 5.859375-15.355469 0-21.210938-25.738281-25.742187-50.945313-35.621093-76.863281-41.816406 3.820312-4.28125 7.132812-9.042969 9.917968-14.28125 7.628906-14.332031 11.339844-32.09375 11.339844-54.296875 0-8.285156-6.714844-15-15-15h-22.917969c-35.386719 0-69.175781 16.039062-92.484375 42.546875-4.359375-8.738281-9.738281-16.242187-16.109375-22.441406-12.601562-12.261719-29.125-19.207031-47.78125-20.089844-6.734375-.316406-12.84375 3.890625-14.953125 10.289063l-9.0625 27.492187c-6.949218 21.074219-6.105468 43.9375 2.375 64.371094 2.035156 4.902343 4.488282 9.582031 7.296875 14.015625l-70.078125-21.285156c-41.582031-12.625-81.285156 19.902343-81.285156 62.316406v11.019531c-17.46875 24.117187-30 62.246094-30 117.765625 0 8.285156 6.714844 15 15 15s15-6.714844 15-15c0-27.53125 3.445312-51.792969 10.058594-71.4375 10.691406 15.929688 28.871094 26.4375 49.457031 26.4375 18.28125 0 34.9375-9.300781 44.566406-24.875 9.605469-15.542969 10.457031-34.582031 2.289063-50.925781l-.566406-1.128907c-12.667969-25.335937-42.171876-36.863281-71.167969-24.632812 7.292969-12.976562 22.199219-20.609375 37.929687-15.832031l88.074219 26.746093c.15625.046876.308594.074219.464844.117188-11.757813 16-18.699219 34.675781-20.484375 53.917969-13.164063 13.878906-20.621094 32.339843-20.621094 51.613281 0 16.867188 5.597656 32.445312 15.03125 44.988281-9.664062 12.882813-15.03125 28.652344-15.03125 45.011719 0 41.355469 33.644531 75 75 75 5.464844 0 10.882812-.605469 16.167969-1.769531 6.132812 34.976562 36.5625 62.769531 73.832031 62.769531 9.320312 0 18.441406-1.707031 26.988281-5.003906 13.699219 21.40625 36.945313 35.003906 63.011719 35.003906 41.457031 0 75-34.535156 75-76 0-24.507812-11.816406-46.304688-30.050781-60 18.234375-13.695312 30.050781-35.492188 30.050781-60zm-398.296875-150.699219c11.683594-2.757812 22.132813 1.910157 27.265625 12.179688l.566406 1.128906c3.542969 7.085937 3.1875 15.011719-.972656 21.746094-4.179688 6.765625-11.125 10.644531-19.046875 10.644531-16.273437 0-29.515625-13.242188-29.515625-29.515625v-2.574219c6.648438-7.117187 14.050781-11.804687 21.703125-13.609375zm306.359375 103.757813c-.316406-1.367188-.675781-2.726563-1.070312-4.074219 1.878906-2.507813 3.007812-5.609375 3.007812-8.984375 0-26.585938-1.402344-51.203125-14.714844-74.992188 24.683594.15625 44.714844 20.273438 44.714844 44.992188 0 20.269531-13.476562 37.449219-31.9375 43.058594zm-207.894531-9.328125c.460937.996093.921875 1.992187 1.417969 2.976562 2.546874 5.101563 7.753906 8.292969 13.410156 8.292969.273437 0 .542968-.007812.816406-.023438 22.039062-1.191406 40.546875-8.699218 53.875-21.753906-6.234375 11.066406-9.6875 23.703125-9.6875 36.777344 0 4.113281.347656 8.144531.984375 12.078125-5.0625 1.921875-10.464844 2.921875-15.984375 2.921875-23.554688 0-42.929688-18.195312-44.832031-41.269531zm89.832031 26.269531c0-12.898438 5.597656-25.085938 15.023438-33.539062.863281.558593 1.722656 1.117187 2.597656 1.652343 18.039062 11.046875 39.023437 16.886719 60.683594 16.886719h9.117187c1.6875 4.789062 2.578125 9.863281 2.578125 15 0 24.8125-20.1875 45-45 45s-45-20.1875-45-45zm-69.816406-238.808594 5.101562-15.472656c17.976563 5.078125 29.730469 20.914062 35.007813 47.230469 1.261719 6.28125 6.371093 11.070312 12.722656 11.917969 6.351563.851562 12.535156-2.429688 15.402344-8.160157 16.007812-32.019531 48.847656-52.707031 83.664062-52.707031h7.175781c-2.765624 25.59375-13.375 39.894531-34 46.769531-6.453124 2.152344-10.652343 8.375-10.230468 15.164063.425781 6.785156 5.363281 12.441406 12.03125 13.773437 32.742187 6.554688 58.921875 9.53125 85.152344 30.058594-19.796876 14.007813-40.265626 15.234375-67.210938 15.234375-6.066406 0-11.535156 3.65625-13.859375 9.261719-2.320313 5.601562-1.035156 12.054687 3.253906 16.34375 19.988281 19.992187 24.460938 39.457031 25.382813 64.394531h-11.472656c-34.339844 0-63.457032-18.847656-79.890626-51.707031-7.273437-14.550781-29.378906-8.664063-28.386718 7.617187.671875 11.0625-2.707032 21.363282-9.515625 29-6.21875 6.980469-15.128907 11.683594-26.101563 13.859375-3.117187-9.042969-4.492187-18.433593-4.214844-27.726562.003907-.09375.003907-.183594.007813-.277344 1.332031-39.855469 30.0625-58.117187 35.402344-65.160156 3.410156-3.410157 4.9375-8.269531 4.164062-13.03125-1.335937-8.207031-8.25-11.050781-8.351562-11.132813-27.878907-13.941406-41.015625-45.589844-31.234375-75.25zm-20.183594 298.808594c0-8.988281 2.703125-17.683594 7.613281-25.023438 11.015625 6.363282 23.777344 10.023438 37.386719 10.023438 9.207031 0 18.21875-1.671875 26.675781-4.890625 4.882813 7.6875 11.113281 14.4375 18.375 19.890625-13.496093 10.136719-23.472656 24.714844-27.746093 41.542969-5.449219 2.269531-11.332032 3.457031-17.304688 3.457031-24.8125 0-45-20.1875-45-45zm135 106c-24.394531 0-45-21.066406-45-46 0-24.8125 20.1875-45 45-45 15.648438 0 29.933594 8.128906 38.058594 20.976562-14.195313 13.652344-23.058594 32.816407-23.058594 54.023438 0 4.40625.398438 8.757812 1.132812 13.023438-5.105468 1.960937-10.558593 2.976562-16.132812 2.976562zm135-16c0 24.933594-20.605469 46-45 46s-45-21.066406-45-46c0-24.8125 20.1875-45 45-45s45 20.1875 45 45zm-45-75c-15.648438 0-29.933594-8.128906-38.058594-20.976562 11.058594-10.636719 18.863282-24.617188 21.777344-40.304688 15.6875-2.914062 29.671875-10.71875 40.304688-21.777344 12.847656 8.125 20.976562 22.410156 20.976562 38.058594 0 24.8125-20.1875 45-45 45zm0 0"/></svg>