<?xml version="1.0" encoding="iso-8859-1"?>
<!-- Generator: Adobe Illustrator 19.0.0, SVG Export Plug-In . SVG Version: 6.00 Build 0)  -->
<svg version="1.1" id="Capa_1" xmlns="http://www.w3.org/2000/svg" xmlns:xlink="http://www.w3.org/1999/xlink" x="0px" y="0px"
	 viewBox="0 0 512 512" style="enable-background:new 0 0 512 512;" xml:space="preserve">
<path style="fill:#E1EFFB;" d="M472.071,436.962L314.936,208.417c-7.49-10.894-11.5-23.804-11.5-37.025V40.747h-94.872v130.645
	c0,13.221-4.01,26.13-11.5,37.025L39.929,436.962c-19.66,28.594,0.812,67.512,35.512,67.512H436.56
	C471.26,504.473,491.731,465.556,472.071,436.962z"/>
<path style="fill:#CADDEA;" d="M257.843,197.387L462.87,495.588c16.969-13.163,23.066-38.461,9.201-58.627L314.936,208.417
	c-7.49-10.894-11.5-23.804-11.5-37.025V40.747h-49.51v144.031C253.927,189.28,255.292,193.677,257.843,197.387z"/>
<path style="fill:#2C5871;" d="M310.977,56.994H201.023c-8.412,0-15.232-6.82-15.232-15.232V22.759
	c0-8.412,6.82-15.232,15.232-15.232h109.955c8.412,0,15.232,6.82,15.232,15.232v19.003C326.209,50.174,319.39,56.994,310.977,56.994
	z"/>
<path style="fill:#1D4859;" d="M310.977,7.527h-34.445v49.467h34.445c8.412,0,15.232-6.82,15.232-15.232V22.759
	C326.209,14.347,319.39,7.527,310.977,7.527z"/>
<g>
	<path style="fill:#FFDF24;" d="M316.307,260.009H195.693L63.084,452.881c-4.631,6.735-2.182,13.068-0.915,15.477
		c1.268,2.409,5.098,8.014,13.272,8.014h361.118c8.174,0,12.004-5.605,13.272-8.014c1.267-2.41,3.716-8.742-0.915-15.477
		L316.307,260.009z"/>
	<path style="fill:#FFDF24;" d="M316.307,260.009H195.693L63.084,452.881c-4.631,6.735-2.182,13.068-0.915,15.477
		c1.268,2.409,5.098,8.014,13.272,8.014h361.118c8.174,0,12.004-5.605,13.272-8.014c1.267-2.41,3.716-8.742-0.915-15.477
		L316.307,260.009z"/>
</g>
<path d="M118.336,385.806c2.355-3.425,1.488-8.111-1.938-10.466c-3.425-2.355-8.111-1.488-10.466,1.938l-49.05,71.34
	c-4.824,7.017-5.338,15.707-1.374,23.246c3.965,7.537,11.417,12.036,19.933,12.036h361.118c8.516,0,15.967-4.499,19.934-12.038
	c3.964-7.538,3.45-16.228-1.375-23.245L322.51,255.745c-1.404-2.042-3.724-3.263-6.202-3.263H195.693
	c-2.479,0-4.798,1.22-6.202,3.263l-63.413,92.23c-2.355,3.425-1.488,8.111,1.938,10.466c3.425,2.355,8.111,1.488,10.466-1.938
	l61.169-88.968h112.697l130.365,189.61c2.112,3.072,1.413,5.888,0.456,7.709c-0.958,1.821-2.883,3.992-6.611,3.992H75.441
	c-3.728,0-5.652-2.171-6.61-3.991c-0.958-1.822-1.657-4.638,0.455-7.71L118.336,385.806z"/>
<path d="M478.274,432.697L321.139,204.153c-6.657-9.682-10.176-21.011-10.176-32.761v-36.161c0-4.157-3.37-7.527-7.527-7.527
	s-7.527,3.37-7.527,7.527v36.161c0,14.809,4.435,29.086,12.825,41.289l157.135,228.544c7.62,11.083,8.431,24.807,2.169,36.71
	c-6.261,11.904-18.03,19.011-31.479,19.011H75.441c-13.45,0-25.218-7.107-31.479-19.011c-6.262-11.904-5.451-25.627,2.169-36.71
	l157.135-228.544c8.39-12.203,12.825-26.48,12.825-41.289V64.521h79.818V99.94c0,4.157,3.37,7.527,7.527,7.527
	s7.527-3.37,7.527-7.527V64.521h0.015c12.549,0,22.759-10.21,22.759-22.759V22.759C333.736,10.21,323.526,0,310.977,0H201.023
	c-12.549,0-22.759,10.21-22.759,22.759v19.003c0,12.549,10.21,22.759,22.759,22.759h0.015v106.872
	c0,11.75-3.519,23.078-10.176,32.761L33.726,432.697c-10.845,15.774-11.999,35.305-3.088,52.247
	C39.55,501.886,56.299,512,75.441,512h361.118c19.142,0,35.891-10.114,44.802-27.056
	C490.273,468.003,489.119,448.471,478.274,432.697z M201.023,49.467c-4.249,0-7.705-3.457-7.705-7.705V22.759
	c0-4.249,3.457-7.705,7.705-7.705h109.955c4.249,0,7.705,3.457,7.705,7.705v19.003c0,4.249-3.457,7.705-7.705,7.705
	C310.978,49.467,201.023,49.467,201.023,49.467z"/>
<g>
</g>
<g>
</g>
<g>
</g>
<g>
</g>
<g>
</g>
<g>
</g>
<g>
</g>
<g>
</g>
<g>
</g>
<g>
</g>
<g>
</g>
<g>
</g>
<g>
</g>
<g>
</g>
<g>
</g>
</svg>
