<?xml version="1.0" encoding="iso-8859-1"?>
<!-- Generator: Adobe Illustrator 19.0.0, SVG Export Plug-In . SVG Version: 6.00 Build 0)  -->
<svg version="1.1" id="Capa_1" xmlns="http://www.w3.org/2000/svg" xmlns:xlink="http://www.w3.org/1999/xlink" x="0px" y="0px"
	 viewBox="0 0 512 512" style="enable-background:new 0 0 512 512;" xml:space="preserve">
<g>
	<g>
		<path d="M455.118,448.617L322.51,255.745c-1.404-2.042-3.724-3.263-6.202-3.263H195.693c-2.479,0-4.798,1.22-6.202,3.263
			l-63.413,92.23c-2.355,3.425-1.488,8.111,1.938,10.466c3.425,2.355,8.111,1.488,10.466-1.938l61.169-88.968h112.697
			l130.365,189.61c2.112,3.072,1.413,5.888,0.456,7.709c-0.958,1.821-2.883,3.992-6.611,3.992H75.441
			c-3.728,0-5.652-2.171-6.61-3.991c-0.958-1.822-1.657-4.638,0.455-7.71l49.05-71.339c2.355-3.425,1.488-8.111-1.938-10.466
			c-3.425-2.355-8.111-1.488-10.466,1.938l-49.05,71.34c-4.824,7.017-5.338,15.707-1.374,23.246
			c3.965,7.537,11.417,12.036,19.933,12.036h361.118c8.516,0,15.967-4.499,19.934-12.038
			C460.457,464.324,459.943,455.634,455.118,448.617z"/>
	</g>
</g>
<g>
	<g>
		<path d="M478.274,432.697L321.139,204.153c-6.657-9.682-10.176-21.011-10.176-32.761v-36.161c0-4.157-3.37-7.527-7.527-7.527
			c-4.157,0-7.527,3.37-7.527,7.527v36.161c0,14.809,4.435,29.086,12.825,41.289l157.135,228.544
			c7.62,11.083,8.431,24.807,2.169,36.71c-6.261,11.904-18.03,19.011-31.479,19.011H75.441c-13.45,0-25.218-7.107-31.479-19.011
			c-6.262-11.904-5.451-25.627,2.169-36.71l157.135-228.544c8.39-12.203,12.825-26.48,12.825-41.289V64.521h79.818V99.94
			c0,4.157,3.37,7.527,7.527,7.527c4.157,0,7.527-3.37,7.527-7.527V64.521h0.015c12.549,0,22.759-10.21,22.759-22.759V22.759
			C333.736,10.21,323.526,0,310.977,0H201.023c-12.549,0-22.759,10.21-22.759,22.759v19.003c0,12.549,10.21,22.759,22.759,22.759
			h0.015v106.872c0,11.75-3.519,23.078-10.176,32.761L33.726,432.697c-10.845,15.774-11.999,35.305-3.088,52.247
			C39.55,501.886,56.299,512,75.441,512h361.118c19.142,0,35.891-10.114,44.802-27.056
			C490.273,468.003,489.119,448.471,478.274,432.697z M201.023,49.467c-4.249,0-7.705-3.457-7.705-7.705V22.759
			c0-4.249,3.457-7.705,7.705-7.705h109.955c4.249,0,7.705,3.457,7.705,7.705v19.003c0,4.249-3.457,7.705-7.705,7.705H201.023z"/>
	</g>
</g>
<g>
</g>
<g>
</g>
<g>
</g>
<g>
</g>
<g>
</g>
<g>
</g>
<g>
</g>
<g>
</g>
<g>
</g>
<g>
</g>
<g>
</g>
<g>
</g>
<g>
</g>
<g>
</g>
<g>
</g>
</svg>
