<svg height="511pt" viewBox="-23 0 511 511.9978" width="511pt" xmlns="http://www.w3.org/2000/svg"><path d="m276.71875 473.867188c-.566406 0-1.148438-.054688-1.730469-.167969-41.320312-8.207031-82.503906-31.152344-115.972656-64.621094l-12.402344-12.402344c-3.445312-3.445312-3.445312-9.019531 0-12.464843 3.4375-3.445313 9.027344-3.445313 12.464844 0l12.402344 12.402343c31.027343 31.027344 69.007812 52.261719 106.9375 59.789063 4.777343.945312 7.882812 5.589844 6.929687 10.367187-.820312 4.1875-4.503906 7.097657-8.628906 7.097657zm0 0"/><path d="m310.75 477.03125c-4.804688 0-8.734375-3.851562-8.8125-8.667969-.082031-4.863281 3.796875-8.875 8.664062-8.960937 16.757813-.273438 32.445313-3.546875 46.65625-9.722656 4.46875-1.949219 9.660157.105468 11.597657 4.5625 1.941406 4.472656-.105469 9.664062-4.5625 11.601562-16.34375 7.105469-34.308594 10.867188-53.390625 11.1875-.054688 0-.109375 0-.152344 0zm0 0"/><path d="m291.386719 449.414062c-4.867188 0-8.816407-3.949218-8.816407-8.816406v-8.8125c0-4.867187 3.949219-8.816406 8.816407-8.816406 4.863281 0 8.8125 3.949219 8.8125 8.816406v8.8125c0 4.867188-3.949219 8.816406-8.8125 8.816406zm0 0"/><path d="m264.941406 422.96875c-4.867187 0-8.816406-3.949219-8.816406-8.8125v-8.816406c0-4.863282 3.949219-8.8125 8.816406-8.8125 4.863282 0 8.8125 3.949218 8.8125 8.8125v8.816406c0 4.863281-3.949218 8.8125-8.8125 8.8125zm0 0"/><path d="m317.828125 422.96875c-4.863281 0-8.8125-3.949219-8.8125-8.8125v-8.816406c0-4.863282 3.949219-8.8125 8.8125-8.8125 4.867187 0 8.816406 3.949218 8.816406 8.8125v8.816406c0 4.863281-3.949219 8.8125-8.816406 8.8125zm0 0"/><path d="m224.78125 123.128906c-51.839844 0-103.667969-18.367187-143.132812-55.117187l-6.929688-6.445313 6.929688-6.449218c78.925781-73.488282 207.339843-73.488282 286.265624 0l6.929688 6.449218-6.929688 6.453125c-39.464843 36.742188-91.300781 55.109375-143.132812 55.109375zm-123.8125-61.5625c70.226562 58.726563 177.386719 58.726563 247.613281 0-70.226562-58.722656-177.386719-58.722656-247.613281 0zm0 0"/><path d="m77.074219 132.148438-6.398438-8.066407c-35.058593-44.222656-68.632812-101.570312-68.976562-102.144531-2.449219-4.203125-1.03125-9.597656 3.171875-12.058594 4.207031-2.460937 9.601562-1.039062 12.058594 3.171875.320312.546875 31.363281 53.566407 64.515624 96.203125 1.171876.425782 2.273438 1.113282 3.210938 2.046875 3.285156 3.289063 3.4375 8.53125.4375 11.988281-.34375.476563-.667969.898438-1.039062 1.296876zm0 0"/><path d="m300.199219 70.382812h-263.335938c-4.867187 0-8.816406-3.949218-8.816406-8.816406 0-4.863281 3.949219-8.8125 8.816406-8.8125h263.335938c4.867187 0 8.816406 3.949219 8.816406 8.8125 0 4.867188-3.949219 8.816406-8.816406 8.816406zm0 0"/><path d="m308.765625 511.996094c-59.859375 0-124.054687-27.613282-174.546875-78.113282l-12.402344-12.402343c-70.992187-70.992188-96.777344-169.074219-64.152344-244.078125 3.347657-7.703125 4.132813-17.136719 2.328126-28.023438-2.300782-13.910156 2.253906-28.136718 12.199218-38.078125 11.015625-11.027343 27.238282-15.335937 42.335938-11.246093 9.183594 2.492187 18.597656 2.183593 27.21875-.890626 4.488281-1.597656 9.292968-3.070312 14.289062-4.363281l2.558594-.664062 2.492188.847656c34.148437 11.589844 70.949218 13.609375 106.410156 5.835937l2.40625-.527343 2.328125.792969c37.613281 12.824218 73.550781 35.664062 103.933593 66.039062l12.402344 12.402344c67.839844 67.835937 94.511719 159.84375 67.960938 234.40625-3.066406 8.628906-3.382813 18.035156-.890625 27.222656 4.082031 15.089844-.226563 31.316406-11.246094 42.335938-9.933594 9.941406-24.179687 14.515624-38.070313 12.199218-10.894531-1.808594-20.320312-1.023437-28.03125 2.335938-21.648437 9.414062-45.238281 13.960937-69.523437 13.96875zm-205.671875-395.828125c-6.832031 0-13.511719 2.667969-18.4375 7.597656-6.023438 6.019531-8.667969 14.304687-7.273438 22.730469 2.371094 14.308594 1.171876 27.0625-3.5625 37.941406-29.75 68.417969-5.464843 158.664062 60.441407 224.578125l12.402343 12.402344c65.910157 65.90625 156.152344 90.183593 224.582032 60.441406 10.867187-4.722656 23.640625-5.929687 37.9375-3.550781 8.417968 1.367187 16.714844-1.261719 22.726562-7.273438 6.566406-6.566406 9.128906-16.253906 6.699219-25.269531-3.429687-12.667969-2.980469-25.714844 1.300781-37.738281 24.285156-68.1875-.765625-152.976563-63.816406-216.027344l-12.402344-12.402344c-27.863281-27.863281-60.617187-48.929687-94.871094-61.035156-36.96875 7.660156-75.171874 5.582031-110.84375-6.027344-3.597656.996094-7.0625 2.078125-10.316406 3.242188-12.03125 4.285156-25.066406 4.726562-37.742187 1.304687-2.25-.617187-4.550781-.914062-6.824219-.914062zm0 0"/><path d="m97.460938 158.53125c-2.253907 0-4.511719-.867188-6.230469-2.585938-3.445313-3.445312-3.445313-9.015624 0-12.460937l8.816406-8.816406c3.4375-3.445313 9.023437-3.445313 12.460937 0 3.449219 3.445312 3.449219 9.019531 0 12.464843l-8.8125 8.8125c-1.71875 1.71875-3.976562 2.585938-6.234374 2.585938zm0 0"/><path d="m256.125 88.011719c-2.253906 0-4.511719-.863281-6.230469-2.582031l-23.863281-23.863282 23.863281-23.859375c3.4375-3.445312 9.027344-3.445312 12.464844 0 3.445313 3.445313 3.445313 9.015625 0 12.464844l-11.398437 11.394531 11.398437 11.398438c3.445313 3.449218 3.445313 9.019531 0 12.464844-1.71875 1.71875-3.976563 2.582031-6.234375 2.582031zm0 0"/><path d="m203.238281 88.011719c-2.257812 0-4.511719-.863281-6.230469-2.582031l-23.863281-23.863282 23.863281-23.859375c3.4375-3.445312 9.023438-3.445312 12.460938 0 3.449219 3.445313 3.449219 9.015625 0 12.464844l-11.394531 11.394531 11.394531 11.398438c3.449219 3.449218 3.449219 9.019531 0 12.464844-1.71875 1.71875-3.972656 2.582031-6.230469 2.582031zm0 0"/></svg>