<svg height="512pt" viewBox="-19 0 512 512.00202" width="512pt" xmlns="http://www.w3.org/2000/svg"><path d="m90.214844 54.746094c78.394531-72.996094 205.496094-72.996094 283.882812 0-78.386718 72.992187-205.488281 72.992187-283.882812 0zm0 0" fill="#23a24d"/><path d="m79.792969 122.914062c-.125 0-.246094 0-.371094-.011718-2.65625-.109375-5.128906-1.359375-6.769531-3.445313-36.296875-45.761719-71.050782-105.132812-71.410156-105.734375-2.535157-4.351562-1.066407-9.9375 3.285156-12.472656 4.355468-2.546875 9.9375-1.078125 12.484375 3.277344.328125.5625 32.472656 55.464844 66.789062 99.589844 1.230469.445312 2.382813 1.167968 3.355469 2.164062 3.378906 3.410156 3.496094 8.8125.402344 12.371094-.363282.511718-.710938.949218-1.101563 1.367187-1.726562 1.851563-4.144531 2.894531-6.664062 2.894531zm0 0" fill="#be6e41"/><path d="m310.230469 63.871094h-272.589844c-5.035156 0-9.125-4.078125-9.125-9.125s4.089844-9.125 9.125-9.125h272.589844c5.035156 0 9.121093 4.078125 9.121093 9.125s-4.085937 9.125-9.121093 9.125zm0 0" fill="#be6e41"/><path d="m463.453125 416.441406c25.265625-70.941406 2.582031-162.347656-68.203125-233.132812l-12.839844-12.839844c-31.769531-31.769531-67.703125-53.769531-104.070312-66.179688-38.03125 8.339844-78.066406 6.242188-115.039063-6.3125-4.753906 1.230469-9.433593 2.644532-14.023437 4.277344-10.824219 3.851563-22.527344 4.144532-33.625 1.140625-12.078125-3.273437-25.492188-.207031-34.992188 9.289063-8.585937 8.585937-11.914062 20.359375-10.070312 31.472656 1.914062 11.550781 1.621094 23.402344-3.050782 34.140625-31.222656 71.800781-9.488281 168.582031 64.484376 242.5625l12.835937 12.835937c73.972656 73.96875 170.761719 95.703126 242.550781 64.480469 10.738282-4.671875 22.59375-4.960937 34.144532-3.046875 11.113281 1.84375 22.882812-1.496094 31.46875-10.074218 9.5-9.496094 12.554687-22.910157 9.289062-34.992188-3.003906-11.09375-2.71875-22.800781 1.140625-33.621094zm0 0" fill="#ebba16"/><g fill="#f2ecbf"><path d="m285.921875 481.535156c-.585937 0-1.1875-.054687-1.789063-.183594-42.765624-8.484374-85.402343-32.234374-120.046874-66.890624l-12.839844-12.835938c-3.566406-3.570312-3.566406-9.335938 0-12.902344 3.558594-3.570312 9.34375-3.570312 12.902344 0l12.839843 12.835938c32.125 32.128906 71.433594 54.109375 110.695313 61.898437 4.945312.976563 8.15625 5.785157 7.171875 10.722657-.851563 4.351562-4.664063 7.355468-8.933594 7.355468zm0 0"/><path d="m321.152344 484.808594c-4.976563 0-9.042969-3.996094-9.125-8.96875-.082032-5.046875 3.929687-9.195313 8.976562-9.277344 17.328125-.273438 33.578125-3.660156 48.285156-10.066406 4.628907-1.996094 10 .109375 12.007813 4.738281 2.007813 4.613281-.109375 10-4.726563 11.996094-16.925781 7.363281-35.519531 11.25-55.273437 11.578125-.046875 0-.101563 0-.144531 0zm0 0"/><path d="m301.105469 456.214844c-5.039063 0-9.125-4.078125-9.125-9.125v-9.125c0-5.046875 4.085937-9.125 9.125-9.125 5.035156 0 9.125 4.078125 9.125 9.125v9.125c0 5.046875-4.089844 9.125-9.125 9.125zm0 0"/><path d="m273.730469 428.839844c-5.035157 0-9.125-4.078125-9.125-9.121094v-9.125c0-5.046875 4.089843-9.125 9.125-9.125 5.039062 0 9.125 4.078125 9.125 9.125v9.125c0 5.042969-4.085938 9.121094-9.125 9.121094zm0 0"/><path d="m328.476562 428.839844c-5.035156 0-9.125-4.078125-9.125-9.121094v-9.125c0-5.046875 4.089844-9.125 9.125-9.125 5.039063 0 9.125 4.078125 9.125 9.125v9.125c0 5.042969-4.085937 9.121094-9.125 9.121094zm0 0"/><path d="m100.371094 155.113281c-2.335938 0-4.671875-.894531-6.453125-2.675781-3.566407-3.566406-3.566407-9.332031 0-12.898438l9.125-9.125c3.558593-3.566406 9.34375-3.566406 12.902343 0 3.566407 3.566407 3.566407 9.332032 0 12.902344l-9.125 9.121094c-1.777343 1.789062-4.113281 2.675781-6.449218 2.675781zm0 0"/></g><path d="m264.605469 82.117188c-2.335938 0-4.667969-.894532-6.449219-2.671876l-24.699219-24.699218 24.699219-24.699219c3.558594-3.566406 9.34375-3.566406 12.902344 0 3.566406 3.566406 3.566406 9.332031 0 12.902344l-11.796875 11.796875 11.796875 11.796875c3.566406 3.566406 3.566406 9.335937 0 12.902343-1.78125 1.789063-4.117188 2.671876-6.453125 2.671876zm0 0" fill="#be6e41"/><path d="m209.863281 82.117188c-2.335937 0-4.671875-.894532-6.453125-2.671876l-24.699218-24.699218 24.699218-24.699219c3.558594-3.566406 9.34375-3.566406 12.902344 0 3.566406 3.566406 3.566406 9.332031 0 12.902344l-11.796875 11.796875 11.796875 11.796875c3.566406 3.566406 3.566406 9.335937 0 12.902343-1.78125 1.789063-4.113281 2.671876-6.449219 2.671876zm0 0" fill="#be6e41"/></svg>