<svg xmlns="http://www.w3.org/2000/svg" height="512pt" version="1.1" viewBox="0 0 512 512.001" width="512pt">
<g id="surface1">
<path d="M 268.183594 216.308594 L 268.183594 392.542969 C 268.164062 392.386719 268.144531 392.226562 268.125 392.070312 C 265.25 369.558594 260.332031 355.277344 252.652344 347.132812 C 244.972656 338.988281 231.007812 333.246094 208.699219 329.054688 C 194.109375 326.3125 181.289062 325.320312 180.75 325.277344 L 164.335938 324.027344 L 164.621094 340.488281 C 164.632812 341.027344 164.875 353.882812 166.757812 368.609375 C 169.632812 391.121094 174.550781 405.402344 182.230469 413.546875 C 189.910156 421.691406 203.878906 427.433594 226.183594 431.625 C 240.777344 434.367188 253.59375 435.359375 254.132812 435.402344 L 268.183594 436.472656 L 268.183594 511.714844 L 298.167969 511.714844 L 298.167969 216.308594 Z M 268.183594 216.308594 " style=" stroke:none;fill-rule:nonzero;fill:rgb(0%,86.666667%,75.686275%);fill-opacity:1;" />
<path d="M 283.710938 216.308594 L 298.167969 216.308594 L 298.167969 511.714844 L 283.710938 511.714844 Z M 283.710938 216.308594 " style=" stroke:none;fill-rule:nonzero;fill:rgb(0%,80%,69.803922%);fill-opacity:1;" />
<path d="M 375.597656 74.820312 L 375.597656 55.296875 C 375.597656 36.210938 365.925781 19.382812 351.214844 9.445312 C 346.070312 5.964844 340.304688 3.332031 334.121094 1.742188 C 333.234375 1.515625 332.34375 1.308594 331.445312 1.125 C 327.84375 0.386719 324.117188 0 320.300781 0 L 254.804688 0 C 254.195312 0 253.589844 0.0742188 253.019531 0.210938 L 247.121094 0 C 216.585938 0 191.824219 24.757812 191.824219 55.296875 L 191.824219 74.820312 L 191.566406 74.820312 L 191.566406 159.492188 C 191.566406 198.621094 223.402344 230.457031 262.535156 230.457031 L 304.890625 230.457031 C 344.019531 230.457031 375.855469 198.621094 375.855469 159.492188 L 375.855469 74.820312 Z M 375.597656 74.820312 " style=" stroke:none;fill-rule:nonzero;fill:rgb(99.215686%,49.411765%,72.54902%);fill-opacity:1;" />
<path d="M 353.679688 74.820312 L 283.710938 74.820312 L 283.710938 230.457031 L 304.886719 230.457031 C 344.019531 230.457031 375.855469 198.621094 375.855469 159.492188 L 375.855469 74.820312 Z M 353.679688 74.820312 " style=" stroke:none;fill-rule:nonzero;fill:rgb(98.823529%,37.647059%,59.215686%);fill-opacity:1;" />
<path d="M 253.019531 0.210938 C 253.589844 0.0742188 254.195312 0 254.804688 0 L 320.300781 0 C 350.839844 0 375.597656 24.757812 375.597656 55.296875 L 375.597656 87.527344 C 375.597656 118.066406 350.839844 142.824219 320.300781 142.824219 L 283.425781 142.824219 C 305.664062 142.824219 323.691406 124.804688 323.691406 102.566406 L 323.691406 71.410156 L 323.617188 71.390625 C 324.003906 69.683594 324.203125 67.914062 324.203125 66.089844 C 324.203125 52.707031 313.355469 41.859375 299.972656 41.859375 L 247.121094 41.859375 L 247.121094 7.675781 C 247.121094 4.046875 249.644531 1.011719 253.019531 0.210938 Z M 253.019531 0.210938 " style=" stroke:none;fill-rule:nonzero;fill:rgb(98.823529%,24.313725%,50.588235%);fill-opacity:1;" />
<path d="M 320.300781 0 L 283.710938 0 L 283.710938 41.859375 L 299.972656 41.859375 C 313.355469 41.859375 324.203125 52.707031 324.203125 66.089844 C 324.203125 67.914062 324.003906 69.683594 323.617188 71.394531 L 323.691406 71.410156 L 323.691406 102.570312 C 323.691406 124.710938 305.816406 142.667969 283.710938 142.820312 L 283.710938 142.828125 L 320.300781 142.828125 C 350.839844 142.828125 375.597656 118.070312 375.597656 87.53125 L 375.597656 55.300781 C 375.597656 24.757812 350.839844 0 320.300781 0 Z M 320.300781 0 " style=" stroke:none;fill-rule:nonzero;fill:rgb(80%,8.235294%,39.215686%);fill-opacity:1;" />
<path d="M 323.691406 71.410156 L 323.691406 102.570312 C 323.691406 124.804688 305.664062 142.828125 283.425781 142.828125 L 247.121094 142.828125 C 216.585938 142.828125 191.824219 118.070312 191.824219 87.53125 L 191.824219 55.296875 C 191.824219 24.757812 216.582031 0 247.121094 0 L 253.023438 0.210938 C 249.644531 1.015625 247.121094 4.046875 247.121094 7.675781 L 247.121094 60.691406 C 247.121094 77.054688 260.394531 90.320312 276.757812 90.320312 L 299.972656 90.320312 C 306.667969 90.320312 312.71875 87.605469 317.109375 83.222656 C 320.300781 80.03125 322.605469 75.960938 323.617188 71.394531 Z M 323.691406 71.410156 " style=" stroke:none;fill-rule:nonzero;fill:rgb(98.823529%,37.647059%,59.215686%);fill-opacity:1;" />
<path d="M 323.617188 71.390625 C 322.605469 75.957031 320.300781 80.03125 317.105469 83.222656 C 312.714844 87.605469 306.667969 90.320312 299.972656 90.320312 L 283.710938 90.320312 L 283.710938 142.820312 C 305.816406 142.664062 323.691406 124.710938 323.691406 102.566406 L 323.691406 71.410156 Z M 323.617188 71.390625 " style=" stroke:none;fill-rule:nonzero;fill:rgb(98.823529%,24.313725%,50.588235%);fill-opacity:1;" />
<path d="M 324.203125 66.089844 C 324.203125 67.914062 324.003906 69.683594 323.617188 71.394531 C 322.605469 75.960938 320.300781 80.03125 317.105469 83.222656 C 312.714844 87.605469 306.667969 90.320312 299.972656 90.320312 L 276.757812 90.320312 C 260.394531 90.320312 247.121094 77.058594 247.121094 60.691406 L 247.121094 41.859375 L 299.972656 41.859375 C 313.355469 41.859375 324.203125 52.707031 324.203125 66.089844 Z M 324.203125 66.089844 " style=" stroke:none;fill-rule:nonzero;fill:rgb(80%,8.235294%,39.215686%);fill-opacity:1;" />
<path d="M 299.972656 41.859375 L 283.710938 41.859375 L 283.710938 90.320312 L 299.972656 90.320312 C 306.667969 90.320312 312.71875 87.605469 317.105469 83.222656 C 320.300781 80.03125 322.601562 75.960938 323.617188 71.394531 C 324.003906 69.683594 324.203125 67.914062 324.203125 66.089844 C 324.203125 52.707031 313.355469 41.859375 299.972656 41.859375 Z M 299.972656 41.859375 " style=" stroke:none;fill-rule:nonzero;fill:rgb(67.45098%,7.45098%,32.941176%);fill-opacity:1;" />
<path d="M 0 321.375 C 0 357.699219 25.894531 388.085938 60.191406 395.054688 L 60.191406 482.019531 L 18.144531 482.019531 L 18.144531 512 L 132.21875 512 L 132.21875 482.019531 L 90.171875 482.019531 L 90.171875 395.054688 C 124.46875 388.085938 150.363281 357.699219 150.363281 321.375 L 150.363281 246.191406 L 0 246.191406 Z M 0 321.375 " style=" stroke:none;fill-rule:nonzero;fill:rgb(53.333333%,78.039216%,94.509804%);fill-opacity:1;" />
<path d="M 150.363281 321.375 L 150.363281 246.191406 L 75.183594 246.191406 L 75.183594 512 L 132.21875 512 L 132.21875 482.015625 L 90.171875 482.015625 L 90.171875 395.050781 C 124.46875 388.085938 150.363281 357.699219 150.363281 321.375 Z M 150.363281 321.375 " style=" stroke:none;fill-rule:nonzero;fill:rgb(37.647059%,65.490196%,90.196078%);fill-opacity:1;" />
<path d="M 0 296.050781 L 0 321.375 C 0 362.832031 33.726562 396.558594 75.183594 396.558594 C 116.636719 396.558594 150.363281 362.832031 150.363281 321.375 L 150.363281 296.050781 Z M 0 296.050781 " style=" stroke:none;fill-rule:nonzero;fill:rgb(99.215686%,49.411765%,72.54902%);fill-opacity:1;" />
<path d="M 75.183594 296.050781 L 75.183594 396.558594 C 116.636719 396.558594 150.363281 362.832031 150.363281 321.375 L 150.363281 296.050781 Z M 75.183594 296.050781 " style=" stroke:none;fill-rule:nonzero;fill:rgb(98.823529%,37.647059%,59.215686%);fill-opacity:1;" />
<path d="M 361.347656 321.375 C 361.347656 357.699219 387.242188 388.085938 421.539062 395.054688 L 421.539062 482.019531 L 379.496094 482.019531 L 379.496094 512 L 493.566406 512 L 493.566406 482.019531 L 451.523438 482.019531 L 451.523438 395.054688 C 485.820312 388.085938 511.714844 357.699219 511.714844 321.375 L 511.714844 246.191406 L 361.347656 246.191406 Z M 361.347656 321.375 " style=" stroke:none;fill-rule:nonzero;fill:rgb(53.333333%,78.039216%,94.509804%);fill-opacity:1;" />
<path d="M 511.710938 321.375 L 511.710938 246.191406 L 436.53125 246.191406 L 436.53125 512 L 493.566406 512 L 493.566406 482.015625 L 451.523438 482.015625 L 451.523438 395.050781 C 485.820312 388.085938 511.710938 357.699219 511.710938 321.375 Z M 511.710938 321.375 " style=" stroke:none;fill-rule:nonzero;fill:rgb(37.647059%,65.490196%,90.196078%);fill-opacity:1;" />
<path d="M 361.347656 296.050781 L 361.347656 321.375 C 361.347656 362.832031 395.074219 396.558594 436.53125 396.558594 C 477.988281 396.558594 511.714844 362.832031 511.714844 321.375 L 511.714844 296.050781 Z M 361.347656 296.050781 " style=" stroke:none;fill-rule:nonzero;fill:rgb(99.215686%,49.411765%,72.54902%);fill-opacity:1;" />
<path d="M 436.53125 296.050781 L 436.53125 396.558594 C 477.984375 396.558594 511.710938 362.832031 511.710938 321.375 L 511.710938 296.050781 Z M 436.53125 296.050781 " style=" stroke:none;fill-rule:nonzero;fill:rgb(98.823529%,37.647059%,59.215686%);fill-opacity:1;" />
</g>
</svg>