<svg xmlns="http://www.w3.org/2000/svg" height="512pt" version="1.1" viewBox="0 0 512 512.00102" width="512pt">
<g id="surface1">
<path d="M 363.652344 148.511719 C 349.855469 159.882812 332.191406 166.722656 312.960938 166.722656 L 221.367188 166.722656 L 221.367188 166.480469 C 204.425781 165.242188 188.933594 158.710938 176.558594 148.511719 L 176.558594 158.066406 C 176.558594 198.335938 209.320312 231.097656 249.59375 231.097656 L 259.949219 231.097656 L 259.949219 345.339844 C 252.007812 337.871094 238.34375 332.507812 217.214844 328.542969 C 202.582031 325.792969 189.730469 324.796875 189.1875 324.753906 L 172.726562 323.5 L 173.015625 340.007812 C 173.023438 340.550781 173.269531 353.4375 175.15625 368.207031 C 178.039062 390.785156 182.96875 405.105469 190.671875 413.269531 C 198.375 421.4375 212.378906 427.199219 234.75 431.398438 C 245.507812 433.421875 255.300781 434.496094 259.949219 434.9375 L 259.949219 511.714844 L 290.015625 511.714844 L 290.015625 231.101562 L 290.617188 231.101562 C 330.890625 231.101562 363.652344 198.335938 363.652344 158.066406 Z M 363.652344 148.511719 " style=" stroke:none;fill-rule:nonzero;fill:rgb(0%,0%,0%);fill-opacity:1;" />
<path d="M 326.082031 65.882812 C 326.082031 66.605469 326.058594 67.324219 326.023438 68.039062 L 326.082031 68.039062 L 326.082031 104.527344 C 326.082031 116.195312 322.847656 127.121094 317.234375 136.460938 C 342.664062 134.28125 362.699219 112.902344 362.699219 86.917969 L 362.699219 51.507812 C 357.578125 22.285156 332.035156 0 301.367188 0 L 249.199219 0 C 249.058594 0 248.917969 0.015625 248.777344 0.0195312 L 248.777344 26.546875 L 286.746094 26.546875 C 308.433594 26.542969 326.082031 44.191406 326.082031 65.882812 Z M 326.082031 65.882812 " style=" stroke:none;fill-rule:nonzero;fill:rgb(0%,0%,0%);fill-opacity:1;" />
<path d="M 263.886719 136.65625 C 281.601562 136.65625 296.015625 122.246094 296.015625 104.527344 L 296.015625 104.109375 C 293.039062 104.828125 289.9375 105.222656 286.742188 105.222656 L 263.457031 105.222656 C 238.785156 105.222656 218.710938 85.144531 218.710938 60.472656 L 218.710938 3.359375 C 197.519531 10.621094 181.457031 29 177.511719 51.507812 L 177.511719 86.917969 C 177.511719 114.34375 199.828125 136.65625 227.25 136.65625 Z M 263.886719 136.65625 " style=" stroke:none;fill-rule:nonzero;fill:rgb(0%,0%,0%);fill-opacity:1;" />
<path d="M 263.457031 75.152344 L 286.742188 75.152344 C 291.855469 75.152344 296.015625 70.996094 296.015625 65.882812 C 296.015625 60.769531 291.855469 56.613281 286.742188 56.613281 L 248.773438 56.613281 L 248.773438 60.472656 C 248.777344 68.566406 255.363281 75.152344 263.457031 75.152344 Z M 263.457031 75.152344 " style=" stroke:none;fill-rule:nonzero;fill:rgb(0%,0%,0%);fill-opacity:1;" />
<path d="M 511.222656 320.839844 L 511.222656 245.449219 L 360.4375 245.449219 L 360.4375 320.839844 C 360.4375 357.265625 386.402344 387.738281 420.796875 394.726562 L 420.796875 481.933594 L 378.632812 481.933594 L 378.632812 512 L 493.027344 512 L 493.027344 481.933594 L 450.863281 481.933594 L 450.863281 394.726562 C 485.257812 387.738281 511.222656 357.265625 511.222656 320.839844 Z M 390.503906 296.140625 L 390.503906 275.515625 L 481.15625 275.515625 L 481.15625 296.140625 Z M 390.503906 296.140625 " style=" stroke:none;fill-rule:nonzero;fill:rgb(0%,0%,0%);fill-opacity:1;" />
<path d="M 0 320.839844 C 0 357.265625 25.964844 387.738281 60.359375 394.726562 L 60.359375 481.933594 L 18.195312 481.933594 L 18.195312 512 L 132.589844 512 L 132.589844 481.933594 L 90.425781 481.933594 L 90.425781 394.726562 C 124.820312 387.738281 150.785156 357.265625 150.785156 320.839844 L 150.785156 245.449219 L 0 245.449219 Z M 30.066406 275.515625 L 120.71875 275.515625 L 120.71875 296.140625 L 30.066406 296.140625 Z M 30.066406 275.515625 " style=" stroke:none;fill-rule:nonzero;fill:rgb(0%,0%,0%);fill-opacity:1;" />
</g>
</svg>