<?xml version="1.0"?>
<svg xmlns="http://www.w3.org/2000/svg" xmlns:xlink="http://www.w3.org/1999/xlink" version="1.1" id="Capa_1" x="0px" y="0px" viewBox="0 0 512.008 512.008" style="enable-background:new 0 0 512.008 512.008;" xml:space="preserve" width="512px" height="512px" class=""><g><path style="fill:#3F4347;" d="M208.329,150.864c-6.848-4.096-11.344-11.232-11.344-19.344c0-4.496,0-8.992,0-13.488h-56.88  c0,4.496,0,8.992,0,13.488c0,8.112-4.512,15.248-11.344,19.344c-21.856,13.104-36.4,36.432-36.4,63.888v272.432  c0,11.04,8.352,20.208,19.312,21.488c37.792,4.448,75.952,4.448,113.744,0c10.96-1.28,19.312-10.448,19.312-21.488V214.752  C244.729,187.296,230.169,163.984,208.329,150.864z" data-original="#3F4347" class=""/><path style="fill:#5A5F63;" d="M223.353,214.736v272.48c0,11.04-5.92,20.16-13.92,21.44c-10.88,1.76-21.6,2.88-32.64,3.2  c8.16-0.48,16.48-1.44,24.64-3.2c6.4-1.28,11.36-10.4,11.36-21.44v-272.48c0-27.52-8.48-50.72-21.12-63.84  c-4-4.16-6.72-11.2-6.72-19.36v-13.44h4v13.44c0,8.16,3.36,15.2,8.16,19.36C212.953,164.016,223.353,187.216,223.353,214.736z" data-original="#5A5F63" class=""/><rect x="140.121" y="36.176" style="fill:#232121" width="56.848" height="86.736" data-original="#DEE4E9" class="" data-old_color="#211E1E"/><g>
	<rect x="140.121" y="95.136" style="fill:#FFFF00" width="56.848" height="14.096" data-original="#E14B4B" class="" data-old_color="#F70707"/>
	<path style="fill:#FFFF00" d="M201.977,5.296v44.88c0,3.04-2.4,5.456-5.296,5.456h-56.256c-2.88,0-5.296-2.4-5.296-5.456V5.296   c0-2.896,2.4-5.296,5.296-5.296h56.272C199.577,0,201.977,2.4,201.977,5.296z" data-original="#E14B4B" class="" data-old_color="#F70707"/>
	<polygon style="fill:#FFFF00" points="244.729,370.208 92.361,460.544 92.361,333.312 244.729,242.976  " data-original="#E14B4B" class="" data-old_color="#F70707"/>
</g><g>
	<rect x="342.697" y="363.216" style="fill:#EFEFEF;" width="19.008" height="142.624" data-original="#EFEFEF" class=""/>
	<path style="fill:#EFEFEF;" d="M352.217,413.776L352.217,413.776c-42.08,0-73.872-38.128-66.304-79.52l17.808-97.44h97.008   l17.808,97.44C426.073,375.648,394.281,413.776,352.217,413.776z" data-original="#EFEFEF" class=""/>
</g><path style="fill:#FFFF00" d="M395.033,275.216h-85.648l-11.2,61.296c-6.16,33.744,19.776,64.784,54.016,64.784  c34.304,0,60.176-31.104,54.016-64.784L395.033,275.216z" data-original="#E14B4B" class="" data-old_color="#F70707"/><path style="fill:#D8D80A" d="M352.153,401.296c-5.28,0-10.4-0.8-15.2-2.24c34.624-3.92,59.344-36.608,52.8-71.52l-9.44-52.32  h14.72l11.2,61.28C412.233,370.16,386.777,401.296,352.153,401.296z" data-original="#D03F3F" class="active-path" data-old_color="#7F7F04"/><path style="fill:#E2E2E1" d="M401.257,512c-4.048-10.56-24.4-18.624-49.056-18.624s-45.008,8.048-49.056,18.624H401.257z" data-original="#E2E2E1" class=""/><g>
	
	
</g></g> </svg>
