<svg height="512pt" viewBox="-31 0 512 512" width="512pt" xmlns="http://www.w3.org/2000/svg"><path d="m97.996094 0-4.496094 5.359375c-2.035156 2.4375-28.445312 34.625-52.683594 84.640625-4.335937 8.945312 21.425782 18.453125 17.40625 28.46875-4.019531 10.019531-37.816406 20.546875-41.261718 31.53125-9.996094 31.851562-16.960938 69.292969-16.960938 107s6.964844 73.148438 16.960938 105c3.386718 10.792969 37.109374 21.144531 41.050781 31.007812 4.082031 10.207032-21.605469 19.890626-17.195313 28.992188 24.238282 50.015625 50.648438 82.203125 52.683594 84.640625l4.496094 5.359375h66.050781v-512zm0 0" fill="#f6a96c"/><path d="m433.039062 150c-3.273437-10.4375-36.863281-20.460938-40.660156-30.027344-4.199218-10.570312 21.355469-20.582031 16.804688-29.972656-24.238282-50.015625-50.648438-82.203125-52.683594-84.640625l-4.496094-5.359375h-66.050781v512h66.050781l4.496094-5.359375c2.035156-2.4375 28.445312-34.625 52.683594-84.640625 4.335937-8.945312-21.425782-18.453125-17.40625-28.46875 4.019531-10.019531 37.816406-20.546875 41.261718-31.53125 9.996094-31.851562 16.960938-67.292969 16.960938-105s-6.964844-75.148438-16.960938-107zm0 0" fill="#ef9456"/><path d="m360 257c0 113.097656-29.699219 208.800781-74.097656 255h-121.804688c-44.398437-46.199219-74.097656-141.902344-74.097656-255 0-113.101562 29.699219-210.800781 74.097656-257h121.804688c44.398437 46.199219 74.097656 143.898438 74.097656 257zm0 0" fill="#ffbd86"/><path d="m360 257c0 113.097656-29.699219 208.800781-74.097656 255h-60.902344v-512h60.902344c44.398437 46.199219 74.097656 143.898438 74.097656 257zm0 0" fill="#f6a96c"/><path d="m432.898438 362c-6.898438 21.898438-15 42-23.699219 60h-368.398438c-8.699219-18-16.800781-38.101562-23.699219-60zm0 0" fill="#5a5a5a"/><path d="m225 362h207.898438c-6.898438 21.898438-15 42-23.699219 60h-184.199219zm0 0" fill="#444"/><path d="m432.898438 150h-415.796876c6.898438-21.902344 15-42 23.699219-60h368.398438c8.699219 18 16.800781 38.097656 23.699219 60zm0 0" fill="#5a5a5a"/><path d="m432.898438 150h-207.898438v-60h184.199219c8.699219 18 16.800781 38.097656 23.699219 60zm0 0" fill="#444"/></svg>