<svg height="512pt" viewBox="-31 0 512 512" width="512pt" xmlns="http://www.w3.org/2000/svg"><path d="m352.042969 0h-254.085938l-4.5 5.421875c-36.222656 43.636719-93.457031 145.058594-93.457031 250.578125 0 71.476562 25.375 135.746094 46.664062 177.074219 14.125 27.421875 31 54.332031 51.292969 78.925781h254.085938c20.273437-24.570312 37.148437-51.46875 51.292969-78.925781 21.285156-41.328125 46.664062-105.597657 46.664062-177.074219 0-91.890625-44.113281-190.75-97.957031-256zm67.957031 256c0 26.671875-3.917969 52.347656-9.886719 76h-55.070312c3.253906-24.25 4.957031-50.1875 4.957031-76s-1.703125-51.75-4.957031-76h55.101562c6.03125 23.882812 9.855469 49.472656 9.855469 76zm-359.542969 136c-4.109375-9.492188-8.050781-19.527344-11.652343-30.011719h352.382812c-3.644531 10.644531-7.585938 20.691407-11.605469 30.011719zm179.542969 29.988281h61.628906c-11.175781 28.433594-23.359375 47.632813-33.164062 60.011719h-28.464844zm-30 60.011719h-28.464844c-9.808594-12.378906-21.992187-31.570312-33.164062-60h61.628906zm-180-226c0-26.671875 3.917969-52.359375 9.886719-76.011719h55.070312c-3.253906 24.253907-4.957031 50.199219-4.957031 76.011719s1.703125 51.746094 4.957031 76h-55.101562c-6.03125-23.882812-9.855469-49.472656-9.855469-76zm294.753906-76c3.4375 24.054688 5.246094 50.0625 5.246094 76s-1.808594 51.945312-5.246094 76h-84.753906v-152zm-114.753906 152h-84.753906c-3.4375-24.058594-5.246094-50.066406-5.246094-76s1.808594-51.941406 5.246094-76h84.753906zm-161.183594-182c3.644532-10.640625 7.582032-20.679688 11.601563-30h329.125c4.109375 9.492188 8.050781 19.515625 11.652343 30zm161.183594-60h-61.628906c11.171875-28.429688 23.355468-47.621094 33.164062-60h28.464844zm30-60h28.464844c9.808594 12.378906 21.992187 31.570312 33.164062 60h-61.628906zm135.210938 60h-41.574219c-8.03125-22.488281-17.664063-42.746094-28.53125-60h32.570312c7.109375 9.433594 22.195313 30.683594 37.535157 60zm-262.890626-60.011719h32.574219c-10.863281 17.253907-20.5 37.523438-28.53125 60.011719h-41.644531c15.296875-29.222656 30.464844-50.554688 37.601562-60.011719zm-37.53125 392.011719h41.574219c8.03125 22.488281 17.667969 42.746094 28.53125 60h-32.570312c-7.109375-9.433594-22.195313-30.683594-37.535157-60zm262.890626 60h-32.574219c10.863281-17.253906 20.5-37.523438 28.53125-60.011719h41.644531c-15.296875 29.222657-30.464844 50.558594-37.601562 60.011719zm0 0"/></svg>